PathFileType	3	(X/Y/Z)	running_2__fused_aligned.trc
DataRate	CameraRate	NumFrames	NumMarkers	Units	OrigDataRate	OrigDataStartFrame	OrigNumFrames
100.0	100.0	18	19	mm	100.0	1835	6395
Frame#	Time	pelvis			neck			head			hip_left			hip_right			knee_left			knee_right			ankle_left			ankle_right			heel_left			heel_right			toe_left			toe_right			shoulder_left			shoulder_right			elbow_left			elbow_right			wrist_left			wrist_right			
		X1	Y1	Z1	X2	Y2	Z2	X3	Y3	Z3	X4	Y4	Z4	X5	Y5	Z5	X6	Y6	Z6	X7	Y7	Z7	X8	Y8	Z8	X9	Y9	Z9	X10	Y10	Z10	X11	Y11	Z11	X12	Y12	Z12	X13	Y13	Z13	X14	Y14	Z14	X15	Y15	Z15	X16	Y16	Z16	X17	Y17	Z17	X18	Y18	Z18	X19	Y19	Z19	
1835	18.34000	33.403145	933.858521	228.568282	3.128470	1470.905930	368.987007	8.610241	1539.639723	525.899702	109.144476	935.717453	227.852247	-42.338084	931.999574	229.284356	116.474670	530.764556	412.509349	-103.129657	507.082268	280.153243	100.166068	155.105693	276.946639	-127.991204	238.470954	-36.226336	97.020143	113.320517	236.676632	-123.356486	230.442900	-91.415845	89.928459	83.884406	446.359877	-149.127943	75.793134	31.111737	163.862125	1461.671970	298.381979	-165.639392	1412.081572	335.551238	256.972989	1242.382454	137.381408	-231.214940	1145.111308	257.719548	276.135082	1062.511070	310.348045	-116.598426	1093.467853	467.339140
1836	18.35000	33.690649	934.140116	228.424781	3.614623	1471.238045	368.989837	9.085310	1539.798997	525.996092	109.427028	936.071247	227.728639	-42.045625	932.208972	229.120939	115.607538	531.038128	411.251042	-103.888714	508.142818	282.037565	99.665127	150.600475	280.640112	-129.849462	241.718896	-36.820707	96.646807	107.443048	240.607614	-125.164586	234.347729	-92.211062	89.934116	82.231951	454.922750	-151.749022	77.524688	28.685814	164.479305	1461.912807	298.651953	-165.236592	1412.588549	335.363778	257.889669	1242.337181	138.483073	-230.833431	1145.848656	256.894507	275.518618	1063.130983	311.237849	-116.080074	1093.994223	466.877068
1837	18.36000	33.978153	934.421711	228.281280	4.100775	1471.570159	368.992668	9.560379	1539.958271	526.092482	109.709580	936.425041	227.605031	-41.753165	932.418370	228.957522	114.740407	531.311700	409.992735	-104.647772	509.203368	283.921886	99.164187	146.095256	284.333586	-131.707720	244.966837	-37.415079	96.273471	101.565579	244.538595	-126.972687	238.252557	-93.006279	89.939773	80.579496	463.485622	-154.370102	79.256242	26.259890	165.096486	1462.153644	298.921926	-164.833792	1413.095525	335.176318	258.806349	1242.291908	139.584737	-230.451923	1146.586004	256.069467	274.902154	1063.750897	312.127652	-115.561723	1094.520594	466.414995
1838	18.37000	33.306059	935.296496	229.244385	3.272187	1472.855468	369.647279	8.518470	1541.200278	526.668852	109.033884	937.362030	228.599070	-42.421656	933.230951	229.889695	113.489812	531.352323	403.813619	-105.519149	510.892817	288.494643	98.416803	144.217822	278.608147	-133.149939	245.575934	-27.560630	95.431969	99.438107	238.735027	-128.531647	238.496274	-82.618149	89.811210	78.430333	458.492607	-155.564070	81.447946	36.799725	164.650256	1463.163292	301.022820	-165.436030	1415.135253	334.638399	259.931334	1243.063314	144.734116	-231.931420	1150.538622	252.981810	270.243574	1067.632320	317.135646	-119.551557	1096.159768	462.649120
1839	18.38000	32.633965	936.171281	230.207491	2.443599	1474.140777	370.301891	7.476562	1542.442285	527.245221	108.358187	938.299018	229.593109	-43.090147	934.043533	230.821868	112.239217	531.392946	397.634503	-106.390526	512.582265	293.067400	97.669419	142.340389	272.882708	-134.592158	246.185030	-17.706181	94.590468	97.310635	232.931459	-130.090608	238.739990	-72.230020	89.682648	76.281169	453.499591	-156.758038	83.639651	47.339559	164.204026	1464.172940	303.123713	-166.038268	1417.174981	334.100479	261.056318	1243.834720	149.883496	-233.410917	1154.491239	249.894152	265.584994	1071.513743	322.143639	-123.541391	1097.798942	458.883246
1840	18.39000	31.961870	937.046066	231.170597	1.615010	1475.426086	370.956503	6.434654	1543.684292	527.821590	107.682491	939.236006	230.587148	-43.758638	934.856114	231.754040	110.988623	531.433570	391.455387	-107.261903	514.271713	297.640156	96.922035	140.462955	267.157269	-136.034376	246.794126	-7.851732	93.748966	95.183163	227.127890	-131.649569	238.983707	-61.841890	89.554086	74.132006	448.506576	-157.952006	85.831355	57.879394	163.757796	1465.182587	305.224607	-166.640507	1419.214709	333.562559	262.181303	1244.606126	155.032875	-234.890415	1158.443856	246.806495	260.926414	1075.395166	327.151632	-127.531225	1099.438117	455.117371
1841	18.40000	31.289776	937.920850	232.133702	0.786422	1476.711395	371.611114	5.392746	1544.926299	528.397960	107.006794	940.172994	231.581186	-44.427129	935.668695	232.686213	109.738028	531.474193	385.276271	-108.133280	515.961162	302.212913	96.174651	138.585521	261.431830	-137.476595	247.403222	2.002718	92.907464	93.055692	221.324322	-133.208530	239.227424	-51.453761	89.425524	71.982842	443.513561	-159.145974	88.023059	68.419228	163.311566	1466.192235	307.325500	-167.242745	1421.254437	333.024639	263.306288	1245.377532	160.182255	-236.369912	1162.396474	243.718837	256.267834	1079.276589	332.159625	-131.521059	1101.077291	451.351496
1842	18.41000	30.617682	938.795635	233.096808	-0.042166	1477.996704	372.265726	4.350838	1546.168306	528.974329	106.331098	941.109982	232.575225	-45.095620	936.481277	233.618386	108.487433	531.514816	379.097155	-109.004657	517.650610	306.785670	95.427267	136.708087	255.706391	-138.918813	248.012318	11.857167	92.065962	90.928220	215.520754	-134.767491	239.471140	-41.065631	89.296962	69.833679	438.520546	-160.339942	90.214764	78.959063	162.865336	1467.201883	309.426393	-167.844983	1423.294165	332.486720	264.431273	1246.148938	165.331634	-237.849409	1166.349091	240.631180	251.609254	1083.158012	337.167618	-135.510893	1102.716466	447.585622
1843	18.42000	29.945587	939.670420	234.059914	-0.870755	1479.282012	372.920338	3.308930	1547.410313	529.550698	105.655401	942.046970	233.569264	-45.764111	937.293858	234.550558	107.236838	531.555440	372.918039	-109.876034	519.340058	311.358426	94.679883	134.830653	249.980952	-140.361032	248.621415	21.711616	91.224460	88.800748	209.717185	-136.326452	239.714857	-30.677502	89.168400	67.684515	433.527530	-161.533910	92.406468	89.498897	162.419107	1468.211531	311.527287	-168.447221	1425.333893	331.948800	265.556258	1246.920345	170.481013	-239.328907	1170.301708	237.543522	246.950675	1087.039435	342.175611	-139.500727	1104.355640	443.819747
1844	18.43000	29.273493	940.545204	235.023019	-1.699343	1480.567321	373.574949	2.267022	1548.652320	530.127068	104.979705	942.983958	234.563303	-46.432602	938.106439	235.482731	105.986244	531.596063	366.738923	-110.747411	521.029507	315.931183	93.932499	132.953220	244.255513	-141.803251	249.230511	31.566065	90.382958	86.673276	203.913617	-137.885412	239.958573	-20.289372	89.039838	65.535352	428.534515	-162.727878	94.598172	100.038732	161.972877	1469.221179	313.628180	-169.049460	1427.373621	331.410880	266.681243	1247.691751	175.630393	-240.808404	1174.254326	234.455865	242.292095	1090.920858	347.183604	-143.490561	1105.994815	440.053872
1845	18.44000	28.601399	941.419989	235.986125	-2.527931	1481.852630	374.229561	1.225114	1549.894327	530.703437	104.304008	943.920946	235.557342	-47.101093	938.919021	236.414904	104.735649	531.636686	360.559807	-111.618788	522.718955	320.503940	93.185115	131.075786	238.530073	-143.245469	249.839607	41.420515	89.541456	84.545804	198.110048	-139.444373	240.202290	-9.901243	88.911276	63.386189	423.541500	-163.921846	96.789877	110.578566	161.526647	1470.230826	315.729074	-169.651698	1429.413349	330.872961	267.806228	1248.463157	180.779772	-242.287901	1178.206943	231.368208	237.633515	1094.802281	352.191598	-147.480395	1107.633989	436.287997
1846	18.45000	27.929304	942.294774	236.949231	-3.356520	1483.137939	374.884172	0.183206	1551.136334	531.279807	103.628312	944.857934	236.551380	-47.769584	939.731602	237.347077	103.485054	531.677310	354.380691	-112.490165	524.408404	325.076696	92.437731	129.198352	232.804634	-144.687688	250.448703	51.274964	88.699954	82.418332	192.306480	-141.003334	240.446007	0.486886	88.782714	61.237025	418.548484	-165.115815	98.981581	121.118401	161.080417	1471.240474	317.829967	-170.253936	1431.453077	330.335041	268.931213	1249.234563	185.929151	-243.767399	1182.159560	228.280550	232.974935	1098.683705	357.199591	-151.470229	1109.273163	432.522123
1847	18.46000	27.257210	943.169558	237.912336	-4.185108	1484.423248	375.538784	-0.858702	1552.378341	531.856176	102.952615	945.794922	237.545419	-48.438075	940.544184	238.279249	102.234459	531.717933	348.201575	-113.361542	526.097852	329.649453	91.690347	127.320918	227.079195	-146.129907	251.057800	61.129413	87.858452	80.290860	186.502912	-142.562295	240.689723	10.875016	88.654152	59.087862	413.555469	-166.309783	101.173285	131.658235	160.634187	1472.250122	319.930860	-170.856174	1433.492805	329.797121	270.056198	1250.005969	191.078531	-245.246896	1186.112178	225.192893	228.316355	1102.565128	362.207584	-155.460063	1110.912338	428.756248
1848	18.47000	24.506411	942.640582	239.808571	-7.203184	1484.168308	377.198930	-4.384257	1552.760328	533.285709	100.162842	945.222647	239.148767	-51.149940	940.058506	240.468387	100.240712	529.475485	342.468928	-114.564285	526.638916	337.806262	88.378442	130.037221	215.586260	-148.234713	248.831988	75.626902	84.122969	84.483753	174.777438	-145.107110	237.562691	25.952210	85.761921	58.604486	396.583043	-166.899641	101.706892	148.574425	158.287026	1471.794910	322.966424	-173.675963	1433.388500	330.097694	269.065621	1248.619802	196.840253	-248.665110	1187.464892	222.203555	222.505790	1103.061922	369.014552	-161.920313	1107.776477	425.212071
1849	18.48000	21.755611	942.111606	241.704806	-10.221261	1483.913369	378.859075	-7.909813	1553.142315	534.715241	97.373068	944.650371	240.752116	-53.861806	939.572829	242.657525	98.246965	527.233036	336.736281	-115.767028	527.179979	345.963071	85.066537	132.753524	204.093324	-150.339520	246.606177	90.124391	80.387485	88.676647	163.051965	-147.651925	234.435659	41.029404	82.869691	58.121110	379.610617	-167.489500	102.240498	165.490614	155.939865	1471.339698	326.001988	-176.495752	1433.284195	330.398267	268.075044	1247.233635	202.601976	-252.083323	1188.817607	219.214218	216.695224	1103.558717	375.821521	-168.380562	1104.640615	421.667894
1850	18.49000	19.004812	941.582630	243.601040	-13.239337	1483.658429	380.519221	-11.435368	1553.524302	536.144774	94.583295	944.078095	242.355464	-56.573672	939.087151	244.846662	96.253218	524.990588	331.003633	-116.969771	527.721043	354.119880	81.754632	135.469828	192.600388	-152.444326	244.380366	104.621880	76.652002	92.869540	151.326491	-150.196741	231.308627	56.106598	79.977460	57.637734	362.638190	-168.079358	102.774105	182.406803	153.592703	1470.884486	329.037552	-179.315541	1433.179890	330.698840	267.084466	1245.847468	208.363699	-255.501537	1190.170322	216.224880	210.884659	1104.055512	382.628489	-174.840812	1101.504754	418.123717
1851	18.50000	16.254012	941.053653	245.497275	-16.257414	1483.403490	382.179366	-14.960923	1553.906289	537.574307	91.793522	943.505820	243.958812	-59.285538	938.601474	247.035800	94.259471	522.748140	325.270986	-118.172514	528.262106	362.276689	78.442727	138.186131	181.107452	-154.549133	242.154555	119.119369	72.916518	97.062433	139.601018	-152.741556	228.181594	71.183792	77.085229	57.154358	345.665764	-168.669217	103.307711	199.322993	151.245542	1470.429274	332.073116	-182.135330	1433.075585	330.999413	266.093889	1244.461302	214.125422	-258.919750	1191.523036	213.235543	205.074093	1104.552306	389.435457	-181.301062	1098.368892	414.579540
1852	18.51000	13.503213	940.524677	247.393510	-19.275490	1483.148550	383.839512	-18.486479	1554.288276	539.003840	89.003748	942.933544	245.562160	-61.997404	938.115797	249.224937	92.265724	520.505691	319.538339	-119.375257	528.803170	370.433498	75.130822	140.902434	169.614517	-156.653939	239.928744	133.616858	69.181035	101.255326	127.875544	-155.286371	225.054562	86.260986	74.192999	56.670982	328.693338	-169.259075	103.841318	216.239182	148.898381	1469.974062	335.108680	-184.955119	1432.971280	331.299986	265.103312	1243.075135	219.887144	-262.337964	1192.875751	210.246206	199.263528	1105.049101	396.242425	-187.761311	1095.233031	411.035363
